<?xml version="1.0" encoding="utf-8"?>
<!-- Generator: Adobe Illustrator 16.0.0, SVG Export Plug-In . SVG Version: 6.00 Build 0)  -->
<!DOCTYPE svg PUBLIC "-//W3C//DTD SVG 1.1//EN" "http://www.w3.org/Graphics/SVG/1.1/DTD/svg11.dtd">
<svg version="1.1" id="Capa_1" xmlns="http://www.w3.org/2000/svg" xmlns:xlink="http://www.w3.org/1999/xlink" x="0px" y="0px"
	 width="595.279px" height="841.891px" viewBox="0 0 595.279 841.891" enable-background="new 0 0 595.279 841.891"
	 xml:space="preserve">
<g>
	<path d="M531.517,279.664c-0.027-0.268-0.073-0.533-0.12-0.795c-0.016-0.09-0.025-0.182-0.04-0.27
		c-0.062-0.312-0.144-0.621-0.231-0.925c-0.013-0.038-0.019-0.076-0.03-0.116c-0.095-0.304-0.204-0.606-0.324-0.901
		c-0.015-0.036-0.024-0.074-0.04-0.11c-0.116-0.278-0.248-0.549-0.387-0.817c-0.025-0.05-0.046-0.106-0.074-0.154
		c-0.128-0.244-0.278-0.479-0.424-0.711c-0.044-0.07-0.084-0.144-0.13-0.212c-0.141-0.212-0.299-0.415-0.457-0.617
		c-0.063-0.082-0.12-0.17-0.186-0.248c-0.192-0.234-0.398-0.457-0.61-0.675c-0.041-0.04-0.07-0.082-0.11-0.122L381.88,126.523
		v-0.002c-0.254-0.254-0.522-0.494-0.797-0.72c-0.06-0.05-0.126-0.094-0.188-0.14c-0.223-0.174-0.446-0.347-0.677-0.5
		c-0.056-0.04-0.118-0.07-0.174-0.106c-0.246-0.158-0.495-0.312-0.753-0.451c-0.036-0.02-0.076-0.036-0.114-0.054
		c-0.282-0.146-0.566-0.286-0.86-0.406c-0.017-0.008-0.036-0.012-0.051-0.02c-0.313-0.13-0.632-0.244-0.958-0.344
		c-0.015-0.004-0.028-0.004-0.04-0.008c-0.329-0.1-0.663-0.185-1.001-0.252c-0.042-0.01-0.088-0.012-0.131-0.022
		c-0.308-0.056-0.62-0.108-0.937-0.138c-0.2-0.02-0.402-0.022-0.606-0.03c-0.158-0.006-0.318-0.024-0.482-0.024
		c-0.004,0-0.006,0-0.01,0H74.695c-6.067,0-10.985,4.918-10.985,10.986V707.6c0,6.065,4.918,10.983,10.985,10.983h445.892
		c6.066,0,10.985-4.918,10.985-10.983V280.76l0,0v-0.002c0-0.014-0.004-0.03-0.004-0.042
		C531.568,280.36,531.549,280.01,531.517,279.664z M494.069,269.779l-108.964,0.012l-0.008-108.978L494.069,269.779z M509.6,696.616
		H85.678v-551.34h277.448l0.008,135.502c0,2.913,1.157,5.709,3.217,7.767c2.06,2.06,4.856,3.217,7.769,3.217l135.48-0.016V696.616z"
		/>
	<path d="M162.247,437.976c0,6.065,4.919,10.983,10.983,10.983h248.824c6.067,0,10.985-4.918,10.985-10.983
		c0-6.067-4.918-10.985-10.985-10.985H173.231C167.166,426.99,162.247,431.908,162.247,437.976z"/>
	<path d="M422.055,589.536H173.231c-6.064,0-10.983,4.918-10.983,10.985s4.919,10.985,10.983,10.985h248.824
		c6.067,0,10.985-4.918,10.985-10.985C433.042,594.454,428.122,589.536,422.055,589.536z"/>
	<path d="M422.055,508.262H173.231c-6.064,0-10.983,4.919-10.983,10.986c0,6.066,4.919,10.985,10.983,10.985h248.824
		c6.067,0,10.985-4.919,10.985-10.985C433.042,513.181,428.122,508.262,422.055,508.262z"/>
</g>
<path d="M162.247,356.976c0,6.065,2.813,10.983,6.282,10.983h142.327c3.47,0,6.283-4.918,6.283-10.983
	c0-6.067-2.813-10.985-6.283-10.985H168.53C165.061,345.99,162.247,350.908,162.247,356.976z"/>
</svg>
