<?xml version="1.0" encoding="iso-8859-1"?>
<!-- Generator: Adobe Illustrator 16.0.0, SVG Export Plug-In . SVG Version: 6.00 Build 0)  -->
<!DOCTYPE svg PUBLIC "-//W3C//DTD SVG 1.1//EN" "http://www.w3.org/Graphics/SVG/1.1/DTD/svg11.dtd">
<svg version="1.1" id="Capa_1" xmlns="http://www.w3.org/2000/svg" xmlns:xlink="http://www.w3.org/1999/xlink" x="0px" y="0px"
	 width="474.854px" height="474.854px" viewBox="0 0 474.854 474.854" style="enable-background:new 0 0 474.854 474.854;"
	 xml:space="preserve">
<g>
	<g id="icons_13_">
		<g>
			<g>
				<path d="M267.76,248.591c-5.583,1.522-21.796,5.897-28.002,7.571c-1.533,0.414-3.34,0.438-4.808,0.066
					c-6.388-1.617-23.841-6.039-27.636-7.052c-0.514-0.138-1.363-0.396-2.203-0.657c-0.226-0.07-2.46-0.516-2.46,1.61
					c0,2.043-0.088,16.959-0.088,16.959h68.334c0,0-0.085-13.933-0.085-16.271C270.812,248.381,269.523,248.109,267.76,248.591z"/>
				<path d="M239.365,142.343c20.694-0.172,37.42-16.999,37.42-37.727c0-20.745-16.726-37.564-37.42-37.737
					c-20.695,0.172-37.422,16.992-37.422,37.737C201.943,125.344,218.67,142.171,239.365,142.343z"/>
				<path d="M236.73,149.068c-48.334,0-59.743,28.745-59.743,51.622c0,15.616,3.483,27.799,12.788,36.718
					c2.983,2.859,6.948,5.186,11.821,5.861c8.47,1.174,17.981-1.654,18.431-11.993c-0.101-10.114-11.948-9.958-17.85-21.921
					c-0.317-0.645-0.835-1.906-0.835-3.656c0-2.322,0-11.782,0-11.782c0-3.299,2.34-6.94,5.973-5.973
					c2.764,0.736,22.611,5.773,28.822,7.348c1.167,0.296,2.492,0.292,3.58-0.012c5.732-1.599,23.912-6.666,26.43-7.336
					c3.633-0.967,5.973,2.674,5.973,5.973c0,0,0.099,12.441,0,14.015c0,7.949-17.657,13.097-17.758,23.177
					c0.435,9.964,10.754,13.873,17.52,12.095c6.768-1.779,8.729-2.846,11.805-5.797c9.306-8.918,12.789-21.103,12.789-36.718
					C296.474,177.813,285.064,149.068,236.73,149.068z"/>
			</g>
			<g>
				<path d="M109.842,323.679H72.947c-0.846,0-1.532,0.687-1.532,1.533v8.688c0,0.846,0.686,1.532,1.532,1.532h11.2v38.437
					c0,0.848,0.686,1.533,1.532,1.533h11.33c0.847,0,1.532-0.686,1.532-1.533v-38.437h11.301c0.847,0,1.532-0.687,1.532-1.532
					v-8.688C111.374,324.365,110.688,323.679,109.842,323.679z"/>
				<path d="M150.35,323.679h-33.887c-0.846,0-1.532,0.687-1.532,1.533v48.657c0,0.848,0.686,1.533,1.532,1.533h33.82
					c0.847,0,1.533-0.686,1.533-1.533v-8.688c0-0.846-0.686-1.532-1.533-1.532h-20.958v-9.066h17.55
					c0.847,0,1.532-0.686,1.532-1.532v-8.688c0-0.847-0.686-1.533-1.532-1.533h-17.55v-7.395h21.025
					c0.847,0,1.532-0.686,1.532-1.531v-8.689C151.882,324.365,151.197,323.679,150.35,323.679z"/>
				<path d="M185.203,324.74c-0.205-0.633-0.793-1.062-1.458-1.062h-12.132c-0.665,0-1.254,0.429-1.458,1.062l-15.707,48.66
					c-0.15,0.465-0.069,0.977,0.219,1.373c0.288,0.396,0.749,0.631,1.239,0.631h11.363c0.682,0,1.282-0.451,1.472-1.106l2.42-8.353
					h13.041l2.451,8.356c0.191,0.653,0.79,1.103,1.47,1.103h11.363c0.007,0,0.013,0,0.021,0c0.846,0,1.532-0.687,1.532-1.533
					c0-0.252-0.061-0.489-0.168-0.699L185.203,324.74z M180.8,354.191h-6.244l3.111-10.736L180.8,354.191z"/>
				<path d="M216.172,337.18c1.177-1.648,2.748-2.449,4.803-2.449c2.533,0,4.298,0.586,5.247,1.744
					c1.041,1.271,1.639,3.342,1.778,6.156c0.041,0.814,0.713,1.456,1.53,1.456h10.996c0.658,0,1.244-0.423,1.452-1.048l0.067-0.2
					c0.064-0.192,0.09-0.396,0.074-0.599c-0.45-6.066-2.463-10.844-5.985-14.196c-3.533-3.363-8.634-5.068-15.159-5.068
					c-6.194,0-11.313,2.028-15.216,6.026c-3.893,3.988-5.867,9.189-5.867,15.458v10.159c0,6.303,2.055,11.518,6.107,15.496
					c4.043,3.973,9.34,5.986,15.745,5.986c6.372,0,11.344-1.66,14.777-4.935c3.437-3.279,5.3-8.028,5.536-14.117
					c0.008-0.185-0.02-0.369-0.078-0.544l-0.066-0.201c-0.207-0.626-0.793-1.048-1.453-1.048h-10.995
					c-0.817,0-1.49,0.642-1.53,1.457c-0.14,2.827-0.683,4.862-1.614,6.048c-0.825,1.053-2.365,1.585-4.576,1.585
					c-2.328,0-4.096-0.821-5.406-2.513c-1.383-1.787-2.085-4.215-2.085-7.217v-10.226
					C214.252,341.395,214.898,338.967,216.172,337.18z"/>
				<path d="M287.145,323.679h-11.263c-0.847,0-1.532,0.687-1.532,1.533v18.854h-14.947v-18.854c0-0.847-0.687-1.533-1.533-1.533
					h-11.33c-0.846,0-1.531,0.687-1.531,1.533v48.657c0,0.848,0.686,1.533,1.531,1.533h11.33c0.847,0,1.533-0.686,1.533-1.533
					v-18.051h14.947v18.051c0,0.848,0.686,1.533,1.532,1.533h11.263c0.846,0,1.532-0.686,1.532-1.533v-48.657
					C288.677,324.365,287.99,323.679,287.145,323.679z"/>
				<path d="M306.829,323.679h-11.263c-0.846,0-1.531,0.687-1.531,1.533v48.657c0,0.848,0.686,1.533,1.531,1.533h11.263
					c0.846,0,1.531-0.686,1.531-1.533v-48.657C308.36,324.365,307.675,323.679,306.829,323.679z"/>
				<path d="M355.821,323.679H344.56c-0.847,0-1.532,0.687-1.532,1.533v25.618l-15.152-26.383c-0.273-0.476-0.78-0.769-1.329-0.769
					h-11.329c-0.847,0-1.532,0.687-1.532,1.533v48.657c0,0.848,0.687,1.533,1.532,1.533h11.329c0.846,0,1.532-0.686,1.532-1.533
					v-25.617l15.151,26.381c0.273,0.477,0.78,0.77,1.329,0.77h11.262c0.848,0,1.532-0.686,1.532-1.533v-48.657
					C357.354,324.365,356.668,323.679,355.821,323.679z"/>
				<path d="M401.907,347.341h-18.982c-0.846,0-1.532,0.687-1.532,1.532v7.486c0,0.846,0.687,1.531,1.532,1.531h6.12v5.344
					c-0.459,0.26-1.026,0.484-1.692,0.674c-1.039,0.293-2.54,0.442-4.462,0.442c-2.371,0-4.147-0.815-5.435-2.491
					c-1.365-1.776-2.058-4.213-2.058-7.238v-10.225c0-2.937,0.703-5.338,2.088-7.137c1.311-1.701,2.99-2.527,5.137-2.527
					c2.192,0,3.8,0.5,4.776,1.483c1.04,1.05,1.734,2.708,2.063,4.929c0.111,0.75,0.756,1.307,1.516,1.307h10.595
					c0.659,0,1.244-0.422,1.453-1.047l0.067-0.201c0.066-0.197,0.091-0.406,0.073-0.614c-0.455-5.381-2.406-9.708-5.798-12.858
					c-3.398-3.154-8.482-4.754-15.112-4.754c-6.169,0-11.298,2.032-15.244,6.039c-3.939,3.999-5.938,9.196-5.938,15.446v10.159
					c0,6.303,2.048,11.516,6.088,15.494c4.03,3.975,9.322,5.99,15.729,5.99c4.953,0,9.154-0.804,12.488-2.388
					c3.327-1.58,5.917-3.457,7.701-5.579c0.232-0.275,0.359-0.625,0.359-0.986v-18.279
					C403.439,348.027,402.754,347.341,401.907,347.341z"/>
			</g>
			<path d="M468.177,265.105h-230.75l0,0l0,0H6.677c-3.688,0-6.677,2.989-6.677,6.676c0,3.688,2.989,6.678,6.677,6.678h26.172
				v122.838c0,3.689,2.99,6.678,6.677,6.678s6.677-2.988,6.677-6.678V278.459h191.224l0,0l0,0H428.65v122.838
				c0,3.689,2.989,6.678,6.678,6.678c3.688,0,6.677-2.988,6.677-6.678V278.459h26.172c3.688,0,6.677-2.989,6.677-6.678
				C474.854,268.094,471.864,265.105,468.177,265.105z"/>
			<g>
				<path d="M124.26,248.591c-5.583,1.522-21.796,5.897-28.002,7.571c-1.533,0.414-3.34,0.438-4.808,0.066
					c-6.388-1.617-23.841-6.039-27.636-7.052c-0.514-0.138-1.363-0.396-2.203-0.657c-0.226-0.07-2.46-0.516-2.46,1.61
					c0,2.043-0.088,16.959-0.088,16.959h68.334c0,0-0.085-13.933-0.085-16.271C127.312,248.381,126.023,248.109,124.26,248.591z"/>
				<path d="M95.865,142.343c20.695-0.172,37.421-16.999,37.421-37.727c0-20.745-16.726-37.564-37.421-37.737
					c-20.695,0.172-37.422,16.992-37.422,37.737C58.443,125.344,75.17,142.171,95.865,142.343z"/>
				<path d="M93.23,149.068c-48.334,0-59.743,28.745-59.743,51.622c0,15.616,3.483,27.799,12.788,36.718
					c2.983,2.859,6.948,5.186,11.821,5.861c8.47,1.174,17.981-1.654,18.431-11.993c-0.101-10.114-11.948-9.958-17.85-21.921
					c-0.317-0.645-0.835-1.906-0.835-3.656c0-2.322,0-11.782,0-11.782c0-3.299,2.34-6.94,5.973-5.973
					c2.764,0.736,22.611,5.773,28.822,7.348c1.167,0.296,2.492,0.292,3.58-0.012c5.733-1.599,23.912-6.666,26.43-7.336
					c3.632-0.967,5.973,2.674,5.973,5.973c0,0,0.098,12.441,0,14.015c0,7.949-17.658,13.097-17.758,23.177
					c0.434,9.964,10.753,13.873,17.519,12.095c6.768-1.779,8.728-2.846,11.805-5.797c9.305-8.918,12.789-21.103,12.789-36.718
					C152.974,177.813,141.565,149.068,93.23,149.068z"/>
			</g>
			<g>
				<path d="M411.76,248.591c-5.583,1.522-21.796,5.897-28.002,7.571c-1.533,0.414-3.34,0.438-4.808,0.066
					c-6.389-1.617-23.842-6.039-27.637-7.052c-0.514-0.138-1.362-0.396-2.203-0.657c-0.226-0.07-2.46-0.516-2.46,1.61
					c0,2.043-0.088,16.959-0.088,16.959h68.334c0,0-0.085-13.933-0.085-16.271C414.812,248.381,413.522,248.109,411.76,248.591z"/>
				<path d="M383.364,142.343c20.695-0.172,37.422-16.999,37.422-37.727c0-20.745-16.727-37.564-37.422-37.737
					c-20.694,0.172-37.422,16.992-37.422,37.737C345.942,125.344,362.67,142.171,383.364,142.343z"/>
				<path d="M380.729,149.068c-48.334,0-59.743,28.745-59.743,51.622c0,15.616,3.483,27.799,12.788,36.718
					c2.983,2.859,6.948,5.186,11.821,5.861c8.47,1.174,17.981-1.654,18.431-11.993c-0.101-10.114-11.947-9.958-17.85-21.921
					c-0.317-0.645-0.835-1.906-0.835-3.656c0-2.322,0-11.782,0-11.782c0-3.299,2.34-6.94,5.973-5.973
					c2.765,0.736,22.611,5.773,28.822,7.348c1.167,0.296,2.492,0.292,3.58-0.012c5.733-1.599,23.912-6.666,26.43-7.336
					c3.632-0.967,5.974,2.674,5.974,5.973c0,0,0.098,12.441,0,14.015c0,7.949-17.658,13.097-17.759,23.177
					c0.435,9.964,10.753,13.873,17.52,12.095c6.768-1.779,8.728-2.846,11.805-5.797c9.306-8.918,12.789-21.103,12.789-36.718
					C440.474,177.813,429.064,149.068,380.729,149.068z"/>
			</g>
		</g>
	</g>
</g>
<g>
</g>
<g>
</g>
<g>
</g>
<g>
</g>
<g>
</g>
<g>
</g>
<g>
</g>
<g>
</g>
<g>
</g>
<g>
</g>
<g>
</g>
<g>
</g>
<g>
</g>
<g>
</g>
<g>
</g>
</svg>
