<?xml version="1.0" encoding="iso-8859-1"?>
<!-- Generator: Adobe Illustrator 19.0.0, SVG Export Plug-In . SVG Version: 6.00 Build 0)  -->
<svg version="1.1" id="Capa_1" xmlns="http://www.w3.org/2000/svg" xmlns:xlink="http://www.w3.org/1999/xlink" x="0px" y="0px"
	 viewBox="0 0 360 360" style="enable-background:new 0 0 360 360;" xml:space="preserve">
<g id="XMLID_815_">
	<path id="XMLID_816_" d="M345.491,124.704h-50.982v-46.87L211.486,0H14.509v360h279.999v-52.568h50.982V124.704z M315.491,277.432
		h-210V154.704h210V277.432z"/>
	<path id="XMLID_819_" d="M126.333,227.871c1.759,1.992,3.857,3.605,6.293,4.843c2.436,1.237,5.123,1.856,8.062,1.856
		c1.662,0,3.364-0.213,5.104-0.639c1.74-0.425,3.373-1.044,4.901-1.855c1.527-0.813,2.9-1.808,4.118-2.987
		c1.218-1.179,2.155-2.542,2.813-4.089l-6.554-3.77c-0.464,1.122-1.083,2.079-1.856,2.871c-0.774,0.793-1.615,1.44-2.523,1.942
		c-0.909,0.504-1.866,0.871-2.871,1.102c-1.006,0.232-1.972,0.349-2.9,0.349c-1.779,0-3.413-0.387-4.901-1.16
		c-1.489-0.773-2.765-1.799-3.828-3.074c-1.064-1.275-1.885-2.755-2.465-4.438c-0.58-1.682-0.87-3.431-0.87-5.248
		c0-1.625,0.251-3.258,0.754-4.901c0.502-1.644,1.247-3.112,2.233-4.408c0.986-1.295,2.223-2.349,3.712-3.161
		c1.488-0.813,3.238-1.218,5.249-1.218c0.928,0,1.875,0.107,2.842,0.319c0.966,0.213,1.894,0.551,2.784,1.015
		c0.889,0.464,1.72,1.093,2.494,1.885c0.773,0.793,1.43,1.768,1.972,2.929l6.148-4.233c-1.354-2.668-3.413-4.833-6.177-6.496
		c-2.765-1.662-6.042-2.494-9.831-2.494c-3.21,0-6.071,0.601-8.584,1.798c-2.514,1.199-4.64,2.766-6.38,4.698
		c-1.74,1.935-3.065,4.128-3.973,6.583c-0.909,2.456-1.363,4.939-1.363,7.453c0,2.63,0.493,5.211,1.479,7.742
		C123.201,223.617,124.573,225.88,126.333,227.871z"/>
	<polygon id="XMLID_820_" points="192.017,227.203 171.022,227.203 171.022,193.041 163.018,193.041 163.018,234.222 
		192.017,234.222 	"/>
	<path id="XMLID_821_" d="M204.893,223.955h14.385l3.827,10.267h8.236l-15.66-41.181h-7.076l-15.718,41.181h8.236L204.893,223.955z
		 M212.143,202.148l5.684,16.183h-11.601L212.143,202.148z"/>
	<path id="XMLID_824_" d="M249.612,227.494c-1.586,0-3.132-0.193-4.64-0.58c-1.508-0.387-2.881-0.86-4.118-1.422
		c-1.237-0.56-2.311-1.121-3.219-1.682c-0.909-0.561-1.537-1.015-1.885-1.363l-3.538,6.902c2.396,1.702,5.104,3.016,8.12,3.943
		c3.016,0.929,6.069,1.393,9.164,1.393c2.01,0,3.934-0.223,5.77-0.667c1.836-0.444,3.46-1.15,4.872-2.116
		c1.411-0.967,2.532-2.234,3.364-3.8c0.831-1.565,1.247-3.45,1.247-5.655c0-1.894-0.311-3.488-0.928-4.785
		c-0.619-1.295-1.499-2.406-2.64-3.334c-1.141-0.928-2.533-1.701-4.176-2.32c-1.643-0.618-3.471-1.198-5.481-1.74
		c-1.547-0.386-2.909-0.754-4.089-1.102c-1.18-0.348-2.155-0.734-2.929-1.16c-0.774-0.426-1.363-0.918-1.769-1.479
		c-0.406-0.561-0.609-1.267-0.609-2.117c0-1.47,0.541-2.61,1.624-3.422c1.082-0.813,2.726-1.219,4.93-1.219
		c1.237,0,2.455,0.155,3.654,0.465c1.198,0.309,2.309,0.686,3.335,1.131c1.024,0.444,1.894,0.898,2.61,1.362
		c0.715,0.464,1.208,0.832,1.479,1.103l3.538-6.496c-1.818-1.237-3.944-2.311-6.38-3.219c-2.437-0.908-5.105-1.363-8.004-1.363
		c-2.088,0-4.041,0.281-5.858,0.841c-1.817,0.561-3.413,1.383-4.785,2.465c-1.373,1.083-2.445,2.436-3.219,4.06
		c-0.773,1.625-1.16,3.48-1.16,5.568c0,1.586,0.241,2.949,0.726,4.09c0.482,1.141,1.208,2.145,2.175,3.016
		c0.966,0.869,2.175,1.623,3.625,2.262c1.45,0.639,3.161,1.229,5.133,1.77c1.624,0.463,3.093,0.889,4.408,1.275
		c1.314,0.387,2.436,0.813,3.364,1.275c0.928,0.465,1.643,1.006,2.145,1.625c0.502,0.619,0.754,1.373,0.754,2.262
		C256.224,226.082,254.02,227.494,249.612,227.494z"/>
	<path id="XMLID_825_" d="M285.166,227.494c-1.586,0-3.132-0.193-4.64-0.58c-1.508-0.387-2.881-0.86-4.118-1.422
		c-1.237-0.56-2.311-1.121-3.219-1.682c-0.909-0.561-1.537-1.015-1.885-1.363l-3.538,6.902c2.396,1.702,5.103,3.016,8.12,3.943
		c3.016,0.929,6.069,1.393,9.164,1.393c2.01,0,3.934-0.223,5.771-0.667c1.836-0.444,3.46-1.15,4.872-2.116
		c1.411-0.967,2.532-2.234,3.364-3.8c0.831-1.565,1.247-3.45,1.247-5.655c0-1.894-0.311-3.488-0.928-4.785
		c-0.619-1.295-1.499-2.406-2.64-3.334c-1.141-0.928-2.533-1.701-4.176-2.32c-1.643-0.618-3.471-1.198-5.481-1.74
		c-1.547-0.386-2.909-0.754-4.089-1.102c-1.18-0.348-2.155-0.734-2.929-1.16c-0.774-0.426-1.363-0.918-1.769-1.479
		c-0.406-0.561-0.609-1.267-0.609-2.117c0-1.47,0.541-2.61,1.624-3.422c1.082-0.813,2.726-1.219,4.93-1.219
		c1.237,0,2.455,0.155,3.654,0.465c1.198,0.309,2.309,0.686,3.335,1.131c1.024,0.444,1.894,0.898,2.61,1.362
		c0.715,0.464,1.208,0.832,1.479,1.103l3.538-6.496c-1.818-1.237-3.944-2.311-6.38-3.219c-2.437-0.908-5.105-1.363-8.004-1.363
		c-2.088,0-4.041,0.281-5.858,0.841c-1.817,0.561-3.413,1.383-4.785,2.465c-1.373,1.083-2.445,2.436-3.219,4.06
		c-0.773,1.625-1.16,3.48-1.16,5.568c0,1.586,0.241,2.949,0.726,4.09c0.482,1.141,1.208,2.145,2.175,3.016
		c0.966,0.869,2.175,1.623,3.625,2.262c1.45,0.639,3.161,1.229,5.133,1.77c1.624,0.463,3.093,0.889,4.408,1.275
		c1.314,0.387,2.436,0.813,3.364,1.275c0.928,0.465,1.643,1.006,2.145,1.625c0.502,0.619,0.754,1.373,0.754,2.262
		C291.778,226.082,289.574,227.494,285.166,227.494z"/>
</g>
<g>
</g>
<g>
</g>
<g>
</g>
<g>
</g>
<g>
</g>
<g>
</g>
<g>
</g>
<g>
</g>
<g>
</g>
<g>
</g>
<g>
</g>
<g>
</g>
<g>
</g>
<g>
</g>
<g>
</g>
</svg>
