<?xml version="1.0" encoding="iso-8859-1"?>
<!-- Generator: Adobe Illustrator 16.0.0, SVG Export Plug-In . SVG Version: 6.00 Build 0)  -->
<!DOCTYPE svg PUBLIC "-//W3C//DTD SVG 1.1//EN" "http://www.w3.org/Graphics/SVG/1.1/DTD/svg11.dtd">
<svg version="1.1" id="Capa_1" xmlns="http://www.w3.org/2000/svg" xmlns:xlink="http://www.w3.org/1999/xlink" x="0px" y="0px"
	 width="30.307px" height="30.307px" viewBox="0 0 30.307 30.307" style="enable-background:new 0 0 30.307 30.307;"
	 xml:space="preserve">
<g>
	<g>
		<path d="M11.881,4.411l0.786,0.136c-0.06-0.195-0.1-0.399-0.115-0.608l0.73,0.104v0.446h1.917V4.175h0.339v0.314h1.919V4.054
			l0.607-0.096c-0.004,0.148-0.023,0.307-0.053,0.464l0.607-0.114c-0.128-1.635-0.756-3.849-3.355-3.849
			c-0.369,0-0.8,0.045-0.987,0.129s-0.221,0.275-0.342,0.315c-0.127,0.043-0.305,0.025-0.415,0.08
			c-1.732,0.835-1.674,2.868-1.674,2.868L11.881,4.411z M14.987,4.276h-1.491v-0.76h1.491V4.276z M17.243,4.276h-1.492v-0.76h1.492
			V4.276z M12.562,3.449c0.771-0.052,1.642-0.659,1.709-1.503c0.976,0.807,2.358,0.847,3.511,0.95
			c0.143,0.066,0.249,0.355,0.278,0.741l-0.604,0.092V3.305h-1.919v0.442h-0.339V3.305h-1.917V3.72l-0.74-0.105
			C12.549,3.558,12.557,3.507,12.562,3.449z"/>
		<path d="M10.776,9.302v2.275l4.348,0.691l4.347-0.691V9.226c0.239-0.2,0.399-0.547,0.399-0.946s-0.16-0.747-0.399-0.946V4.485
			l-4.347,0.692l-4.348-0.692v2.774c-0.297,0.175-0.505,0.566-0.505,1.021C10.271,8.735,10.479,9.124,10.776,9.302z M15.321,5.546
			l3.754-0.599v0.794v1.424c-0.021-0.001-0.04-0.007-0.062-0.007c-0.475,0-0.857,0.502-0.857,1.122c0,0.619,0.384,1.121,0.857,1.121
			c0.021,0,0.041-0.006,0.062-0.008v1.848l-3.754,0.598V5.546z M11.17,9.396c0.453-0.028,0.814-0.514,0.814-1.115
			c0-0.601-0.361-1.087-0.814-1.118V4.947l3.757,0.598v6.294l-3.757-0.598V9.396z"/>
		<path d="M1.611,21.991l0.785,0.136c-0.06-0.195-0.101-0.398-0.116-0.609l0.731,0.104v0.446h1.917v-0.316h0.34v0.316h1.917v-0.436
			l0.609-0.096c-0.005,0.148-0.025,0.306-0.054,0.464l0.607-0.114c-0.127-1.634-0.754-3.848-3.354-3.848
			c-0.369,0-0.801,0.044-0.987,0.13c-0.188,0.083-0.221,0.272-0.341,0.315c-0.128,0.041-0.306,0.023-0.417,0.078
			c-1.732,0.834-1.672,2.867-1.672,2.867L1.611,21.991z M4.717,21.855H3.225v-0.761h1.492V21.855z M6.972,21.855h-1.49v-0.761h1.49
			V21.855z M2.29,21.029c0.771-0.051,1.644-0.659,1.709-1.504c0.978,0.807,2.358,0.847,3.512,0.949
			c0.143,0.067,0.248,0.356,0.277,0.74l-0.603,0.094v-0.426H5.269v0.442h-0.34v-0.442H3.012v0.415l-0.741-0.106
			C2.277,21.139,2.285,21.086,2.29,21.029z"/>
		<path d="M9.199,22.064l-4.346,0.692l-4.349-0.692v2.772C0.209,25.016,0,25.402,0,25.859c0,0.455,0.209,0.844,0.505,1.021v2.274
			l4.349,0.693L9.2,29.154v-2.35c0.238-0.199,0.399-0.546,0.399-0.945c0-0.398-0.16-0.748-0.399-0.946L9.199,22.064L9.199,22.064z
			 M4.655,29.419L0.899,28.82v-1.844c0.453-0.029,0.814-0.518,0.814-1.117c0-0.601-0.361-1.088-0.814-1.117v-2.215l3.756,0.598
			V29.419z M8.806,23.32v1.426c-0.021-0.002-0.041-0.008-0.063-0.008c-0.473,0-0.856,0.501-0.856,1.121
			c0,0.619,0.384,1.121,0.856,1.121c0.022,0,0.042-0.006,0.063-0.008v1.848L5.05,29.419v-6.293l3.756-0.599V23.32z"/>
		<path d="M22.318,21.991l0.785,0.136c-0.06-0.195-0.1-0.398-0.115-0.609l0.73,0.104v0.446h1.918v-0.316h0.338v0.316h1.918v-0.436
			l0.609-0.096c-0.006,0.148-0.023,0.306-0.054,0.464l0.606-0.114c-0.129-1.635-0.756-3.849-3.355-3.849
			c-0.368,0-0.801,0.044-0.987,0.13c-0.187,0.083-0.22,0.273-0.342,0.314c-0.126,0.043-0.306,0.024-0.415,0.08
			c-1.73,0.834-1.673,2.866-1.673,2.866L22.318,21.991z M25.424,21.855h-1.49v-0.761h1.49V21.855z M27.682,21.855h-1.492v-0.761
			h1.492V21.855z M22.999,21.029c0.771-0.051,1.642-0.659,1.709-1.504c0.976,0.807,2.358,0.847,3.513,0.949
			c0.141,0.067,0.246,0.356,0.276,0.74l-0.604,0.094v-0.426h-1.918v0.442h-0.338v-0.442h-1.916v0.415l-0.74-0.106
			C22.986,21.139,22.993,21.086,22.999,21.029z"/>
		<path d="M29.908,24.913v-2.849l-4.348,0.692l-4.348-0.692v2.772c-0.298,0.177-0.505,0.565-0.505,1.021s0.207,0.845,0.505,1.021
			v2.275l4.348,0.693l4.348-0.693v-2.351c0.238-0.198,0.398-0.547,0.398-0.946C30.309,25.461,30.146,25.111,29.908,24.913z
			 M25.363,29.419l-3.756-0.599v-1.844c0.453-0.029,0.813-0.518,0.813-1.117c0-0.601-0.36-1.088-0.813-1.117v-2.215l3.756,0.598
			V29.419z M29.514,23.32v1.426c-0.021-0.002-0.041-0.008-0.063-0.008c-0.472,0-0.856,0.501-0.856,1.121
			c0,0.619,0.387,1.121,0.856,1.121c0.022,0,0.043-0.006,0.063-0.008v1.848l-3.756,0.599v-6.293l3.756-0.599V23.32z"/>
		<polygon points="15.384,13.407 14.739,13.407 14.739,18.605 9.98,21.426 10.309,21.98 15.062,19.163 19.814,21.98 20.145,21.426 
			15.384,18.605 		"/>
	</g>
</g>
<g>
</g>
<g>
</g>
<g>
</g>
<g>
</g>
<g>
</g>
<g>
</g>
<g>
</g>
<g>
</g>
<g>
</g>
<g>
</g>
<g>
</g>
<g>
</g>
<g>
</g>
<g>
</g>
<g>
</g>
</svg>
