<?xml version="1.0" encoding="iso-8859-1"?>
<!-- Generator: Adobe Illustrator 16.0.0, SVG Export Plug-In . SVG Version: 6.00 Build 0)  -->
<!DOCTYPE svg PUBLIC "-//W3C//DTD SVG 1.1//EN" "http://www.w3.org/Graphics/SVG/1.1/DTD/svg11.dtd">
<svg version="1.1" id="Capa_1" xmlns="http://www.w3.org/2000/svg" xmlns:xlink="http://www.w3.org/1999/xlink" x="0px" y="0px"
	 width="564.426px" height="564.427px" viewBox="0 0 564.426 564.427" style="enable-background:new 0 0 564.426 564.427;"
	 xml:space="preserve">
<g>
	<g id="Layer_1_128_">
		<path d="M561.438,486.651c0-16.575-14.023-29.325-30.6-29.325h-99.449c-1.275-25.5-21.676-45.899-47.176-45.899
			c-3.824,0-8.924,0-12.75,1.274c-1.275-24.225-21.674-44.625-47.174-44.625c-6.375,0-12.75,1.275-17.852,3.825
			c0-54.825-10.199-102-10.199-102c16.574-17.85,25.5-45.9,24.225-79.05c0-34.425-10.199-71.4-28.049-95.625
			C265.639,55.702,191.689,25.102,129.214,2.151c-10.2-3.825-22.95-2.55-31.875,3.825c-8.925,5.1-15.3,16.575-15.3,26.775
			c-1.275,67.575-3.825,144.075,25.5,188.7c24.225,35.7,80.325,72.675,131.325,72.675c6.375,0,14.025-1.275,19.125-2.551
			c1.275,5.101-2.55,70.125-2.55,80.325c-5.1-2.55-11.475-3.825-17.85-3.825c-25.5,0-45.9,19.125-47.175,44.625
			c-3.825-1.274-7.65-1.274-12.75-1.274c-25.5,0-45.9,19.125-47.175,45.899H32.314c-16.575,0-29.325,12.75-29.325,29.325v48.45
			c0,16.575,12.75,29.325,29.325,29.325h498.524c16.576,0,30.6-12.75,30.6-29.325V486.651L561.438,486.651z M138.139,201.052
			c-21.675-31.875-20.4-82.875-20.4-164.475c76.5,29.325,119.85,48.45,145.35,80.325c14.025,17.85,20.4,48.45,21.675,75.225
			c0,17.85-2.55,31.875-7.65,43.35l0,0l-5.1-7.65c-7.65-10.2-14.025-19.125-21.675-28.05c-14.025-17.85-26.775-35.7-38.25-49.725
			c-22.95-29.325-36.975-49.725-36.975-49.725c-3.825-3.825-8.925-5.1-14.025-2.55c-5.1,2.55-6.375,8.925-3.825,14.025
			c0,0,12.75,20.4,31.875,52.275c10.2,15.3,20.4,34.425,33.15,53.55c6.375,10.2,12.75,20.4,19.125,30.6l5.1,7.65l1.275,1.275
			c-2.55,0-5.1,0-7.65,0C203.164,258.427,157.264,227.827,138.139,201.052z"/>
	</g>
</g>
<g>
</g>
<g>
</g>
<g>
</g>
<g>
</g>
<g>
</g>
<g>
</g>
<g>
</g>
<g>
</g>
<g>
</g>
<g>
</g>
<g>
</g>
<g>
</g>
<g>
</g>
<g>
</g>
<g>
</g>
</svg>
