<?xml version="1.0" encoding="iso-8859-1"?>
<!-- Generator: Adobe Illustrator 16.0.0, SVG Export Plug-In . SVG Version: 6.00 Build 0)  -->
<!DOCTYPE svg PUBLIC "-//W3C//DTD SVG 1.1//EN" "http://www.w3.org/Graphics/SVG/1.1/DTD/svg11.dtd">
<svg version="1.1" id="Capa_1" xmlns="http://www.w3.org/2000/svg" xmlns:xlink="http://www.w3.org/1999/xlink" x="0px" y="0px"
	 width="123.545px" height="123.546px" viewBox="0 0 123.545 123.546" style="enable-background:new 0 0 123.545 123.546;"
	 xml:space="preserve">
<g>
	<g>
		<circle cx="29.353" cy="48.114" r="9.704"/>
		<path d="M18.108,79.962c-0.068-0.647-0.088-1.269-0.064-1.862c-0.313-1.06-0.488-2.181-0.488-3.342
			c0-6.408,5.136-11.627,11.505-11.785h0.583c6.372,0.155,11.511,5.377,11.511,11.785c0,1.178-0.178,2.314-0.502,3.389
			c0.021,0.582,0.002,1.185-0.066,1.815h7.596c0.871-11.646-8.677-17.515-12.375-19.781c-0.162-0.102-0.335-0.172-0.504-0.245
			c-1.08-0.721-2.293-1.252-3.532-1.555l-2.417,2.433l-2.345-2.461c-0.007,0.002-0.015,0.002-0.023,0.005
			c-1.265,0.302-2.503,0.842-3.601,1.581c-0.168,0.071-0.34,0.142-0.497,0.241c-3.699,2.267-13.246,8.136-12.375,19.781
			L18.108,79.962L18.108,79.962z"/>
		<circle cx="67.131" cy="48.114" r="9.704"/>
		<path d="M55.888,79.962c-0.071-0.647-0.09-1.267-0.066-1.862c-0.314-1.06-0.489-2.181-0.489-3.342
			c0-6.408,5.138-11.627,11.507-11.785h0.584c6.371,0.155,11.51,5.377,11.51,11.785c0,1.178-0.18,2.314-0.502,3.389
			c0.021,0.582,0.002,1.185-0.066,1.815h7.594c0.873-11.646-8.674-17.515-12.371-19.781c-0.164-0.102-0.336-0.172-0.504-0.245
			c-1.082-0.721-2.297-1.252-3.535-1.555l-2.416,2.433l-2.344-2.461c-0.009,0.002-0.018,0.002-0.022,0.005
			c-1.265,0.302-2.501,0.842-3.601,1.581c-0.169,0.071-0.338,0.142-0.498,0.241c-3.698,2.267-13.246,8.136-12.372,19.781
			L55.888,79.962L55.888,79.962z"/>
		<circle cx="29.353" cy="74.515" r="9.704"/>
		<path d="M18.108,106.365c-0.288-2.661,0.252-4.844,1.312-6.684v6.684h9.867l-2.298-3.145l2.341-15.644h0.045l2.34,15.644
			l-2.295,3.145h9.865v-6.666c1.053,1.837,1.587,4.013,1.301,6.666h7.596c0.871-11.646-8.677-17.516-12.375-19.782
			c-0.162-0.101-0.335-0.172-0.504-0.245c-1.08-0.721-2.293-1.25-3.532-1.555l-2.417,2.433l-2.345-2.461
			c-0.007,0.002-0.015,0.002-0.023,0.004c-1.265,0.304-2.503,0.845-3.601,1.581c-0.168,0.073-0.34,0.143-0.497,0.242
			c-3.699,2.268-13.246,8.137-12.375,19.781h7.595V106.365z"/>
		<circle cx="67.131" cy="74.515" r="9.704"/>
		<path d="M55.888,106.365c-0.289-2.661,0.252-4.844,1.311-6.684v6.684h9.868l-2.298-3.145l2.34-15.644h0.045l2.341,15.644
			l-2.296,3.145h9.866v-6.666c1.053,1.837,1.589,4.013,1.3,6.666h7.595c0.873-11.646-8.674-17.516-12.373-19.782
			c-0.162-0.101-0.336-0.172-0.504-0.245c-1.08-0.721-2.295-1.25-3.533-1.555l-2.416,2.433l-2.344-2.461
			c-0.01,0.002-0.019,0.002-0.023,0.004c-1.266,0.304-2.501,0.845-3.601,1.581c-0.169,0.073-0.338,0.143-0.498,0.242
			c-3.698,2.268-13.246,8.137-12.372,19.781h7.593V106.365z"/>
		<circle cx="101.526" cy="25.084" r="9.704"/>
		<path d="M72.365,28.443c0.22,0.453,1.042,2.092,2.378,4.18l0.887,1.343c2.781,4.048,7.176,9.076,12.684,10.8
			c1.089,0.34,2.188,0.532,3.281,0.587v19.856c0,1.023,0.201,1.979,0.554,2.857c-0.022,0.188-0.056,0.373-0.056,0.567l0.002,36.077
			c0,2.459,1.994,4.453,4.453,4.453c2.457,0,4.451-1.994,4.451-4.453l-0.002-30.962c0.176,0.008,0.354,0.021,0.529,0.021
			c0.034,0,0.068-0.002,0.104-0.004l-0.002,30.945c0,2.459,1.994,4.453,4.453,4.453s4.455-1.994,4.455-4.453V69.318
			c0.233,0.223,0.49,0.43,0.787,0.593c0.572,0.312,1.189,0.458,1.795,0.458c1.338,0,2.631-0.711,3.314-1.967
			c10.63-19.54-3.869-28.431-8.633-31.354c-0.127-0.077-0.26-0.126-0.389-0.187c-1.066-0.699-2.257-1.212-3.47-1.509l-2.417,2.433
			l-2.345-2.461c-0.007,0.002-0.015,0.002-0.023,0.004c-1.161,0.279-2.302,0.759-3.336,1.409c-0.256,0.078-0.51,0.179-0.756,0.317
			c-1.501,0.845-2.931,1.009-4.495,0.521c-4.52-1.407-8.766-7.599-10.72-11.087l2.838,0.437l4.671,0.717l2.624-6.344L63.293,0
			l-9.311,22.512l18.316,2.816C71.888,26.297,71.87,27.424,72.365,28.443z M111.459,50.49c1.438,2.722,1.76,6.168,0,10.774V50.49z
			 M101.504,38.146h0.045l2.341,15.643l-2.341,3.204h-0.045l-2.34-3.204L101.504,38.146z"/>
		<rect x="3.305" y="109.717" width="115.662" height="13.829"/>
	</g>
</g>
<g>
</g>
<g>
</g>
<g>
</g>
<g>
</g>
<g>
</g>
<g>
</g>
<g>
</g>
<g>
</g>
<g>
</g>
<g>
</g>
<g>
</g>
<g>
</g>
<g>
</g>
<g>
</g>
<g>
</g>
</svg>
