<?xml version="1.0" encoding="iso-8859-1"?>
<!-- Generator: Adobe Illustrator 19.0.0, SVG Export Plug-In . SVG Version: 6.00 Build 0)  -->
<svg version="1.1" id="Layer_1" xmlns="http://www.w3.org/2000/svg" xmlns:xlink="http://www.w3.org/1999/xlink" x="0px" y="0px"
	 viewBox="0 0 330 330" style="enable-background:new 0 0 330 330;" xml:space="preserve">
<g id="XMLID_30_">
	<polygon id="XMLID_31_" points="267.109,0 62.969,0 165.037,101.157 	"/>
	<path id="XMLID_71_" d="M165,160c6.334,0,12.529,0.599,18.539,1.73l-28.286-28.033c-0.309-0.265-0.616-0.533-0.907-0.827
		c-0.205-0.206-0.385-0.427-0.575-0.643L35.446,14.961L4.441,45.689C1.599,48.506,0,52.342,0,56.343
		c0,4.001,1.599,7.837,4.441,10.654l108.576,107.605C128.175,165.342,145.975,160,165,160z"/>
	<path id="XMLID_85_" d="M325.56,45.694L294.592,15L186.346,122.275l41.719,41.346l97.494-96.619
		C328.401,64.186,330,60.35,330,56.349C330,52.347,328.401,48.511,325.56,45.694z"/>
	<path id="XMLID_86_" d="M135.247,196.634c-17.009,8-30.261,22.643-36.436,40.587c-0.073,0.211-0.145,0.424-0.216,0.636
		c-0.219,0.655-0.433,1.312-0.633,1.976c-0.064,0.213-0.121,0.429-0.183,0.644c-0.31,1.063-0.592,2.138-0.852,3.221
		c-0.118,0.496-0.236,0.991-0.344,1.491c-0.103,0.472-0.198,0.946-0.29,1.421c-0.123,0.628-0.234,1.261-0.34,1.895
		c-0.06,0.361-0.125,0.72-0.18,1.084c-0.146,0.979-0.271,1.965-0.376,2.956c-0.033,0.312-0.058,0.626-0.087,0.94
		c-0.072,0.779-0.132,1.561-0.178,2.346c-0.02,0.32-0.039,0.639-0.054,0.96C95.033,257.855,95,258.923,95,260
		c0,38.66,31.34,70,70,70s70-31.34,70-70c0-1.077-0.033-2.145-0.081-3.21c-0.015-0.32-0.034-0.64-0.054-0.959
		c-0.045-0.786-0.105-1.567-0.178-2.346c-0.029-0.314-0.054-0.629-0.087-0.941c-0.105-0.992-0.23-1.977-0.376-2.956
		c-0.055-0.363-0.12-0.722-0.18-1.083c-0.105-0.635-0.217-1.268-0.34-1.897c-0.092-0.474-0.188-0.947-0.289-1.418
		c-0.108-0.501-0.227-0.998-0.346-1.495c-0.26-1.083-0.541-2.156-0.851-3.218c-0.061-0.214-0.118-0.431-0.183-0.644
		c-0.2-0.663-0.414-1.321-0.634-1.977c-0.071-0.212-0.142-0.424-0.215-0.635c-6.175-17.945-19.429-32.588-36.439-40.588
		C185.721,192.385,175.641,190,165,190S144.278,192.386,135.247,196.634z"/>
</g>
<g>
</g>
<g>
</g>
<g>
</g>
<g>
</g>
<g>
</g>
<g>
</g>
<g>
</g>
<g>
</g>
<g>
</g>
<g>
</g>
<g>
</g>
<g>
</g>
<g>
</g>
<g>
</g>
<g>
</g>
</svg>
