<?xml version="1.0" encoding="iso-8859-1"?>
<!-- Generator: Adobe Illustrator 16.0.0, SVG Export Plug-In . SVG Version: 6.00 Build 0)  -->
<!DOCTYPE svg PUBLIC "-//W3C//DTD SVG 1.1//EN" "http://www.w3.org/Graphics/SVG/1.1/DTD/svg11.dtd">
<svg version="1.1" id="Capa_1" xmlns="http://www.w3.org/2000/svg" xmlns:xlink="http://www.w3.org/1999/xlink" x="0px" y="0px"
	 width="45.33px" height="45.33px" viewBox="0 0 45.33 45.33" style="enable-background:new 0 0 45.33 45.33;" xml:space="preserve"
	>
<g>
	<path d="M4,37.915h13.832c2.209,0,4-1.791,4-4v-0.917h1.666v0.917c0,2.209,1.791,4,4,4H41.33c2.209,0,4-1.791,4-4v-22.5
		c0-2.209-1.791-4-4-4H27.498c-2.209,0-4,1.791-4,4v1.084h-1.666v-1.084c0-2.209-1.791-4-4-4H4c-2.209,0-4,1.791-4,4v22.5
		C0,36.124,1.791,37.915,4,37.915z M23.498,24.165h-1.666v-2.833h1.666V24.165z M21.832,29.998v-2.833h1.666v2.833H21.832z
		 M27.498,13.537c0.365-0.477,0.936-0.789,1.582-0.789h10.668c0.646,0,1.217,0.313,1.582,0.789c0.259,0.337,0.418,0.753,0.418,1.211
		s-0.159,0.874-0.418,1.211c-0.365,0.477-0.936,0.789-1.582,0.789H29.08c-0.646,0-1.217-0.313-1.582-0.789
		c-0.259-0.337-0.418-0.753-0.418-1.211S27.239,13.874,27.498,13.537z M27.498,21.454c0.365-0.477,0.936-0.789,1.582-0.789h10.668
		c0.646,0,1.217,0.313,1.582,0.789c0.259,0.337,0.418,0.753,0.418,1.211s-0.159,0.874-0.418,1.211
		c-0.365,0.477-0.936,0.789-1.582,0.789H29.08c-0.646,0-1.217-0.312-1.582-0.789c-0.259-0.337-0.418-0.753-0.418-1.211
		S27.239,21.791,27.498,21.454z M27.498,29.371c0.365-0.478,0.936-0.789,1.582-0.789h10.668c0.646,0,1.217,0.313,1.582,0.789
		c0.259,0.337,0.418,0.753,0.418,1.211s-0.159,0.874-0.418,1.211c-0.365,0.478-0.936,0.789-1.582,0.789H29.08
		c-0.646,0-1.217-0.313-1.582-0.789c-0.259-0.337-0.418-0.753-0.418-1.211S27.239,29.708,27.498,29.371z M23.498,15.499v2.833
		h-1.666v-2.833H23.498z M4,13.537c0.365-0.477,0.935-0.789,1.582-0.789H16.25c0.647,0,1.217,0.313,1.582,0.789
		c0.259,0.337,0.418,0.753,0.418,1.211s-0.159,0.874-0.418,1.211c-0.365,0.477-0.935,0.789-1.582,0.789H5.582
		c-0.647,0-1.217-0.313-1.582-0.789c-0.259-0.337-0.418-0.753-0.418-1.211S3.741,13.874,4,13.537z M4,21.454
		c0.365-0.477,0.935-0.789,1.582-0.789H16.25c0.647,0,1.217,0.313,1.582,0.789c0.259,0.337,0.418,0.753,0.418,1.211
		s-0.159,0.874-0.418,1.211c-0.365,0.477-0.935,0.789-1.582,0.789H5.582c-0.647,0-1.217-0.312-1.582-0.789
		c-0.259-0.337-0.418-0.753-0.418-1.211S3.741,21.791,4,21.454z M4,29.371c0.365-0.478,0.935-0.789,1.582-0.789H16.25
		c0.647,0,1.217,0.313,1.582,0.789c0.259,0.337,0.418,0.753,0.418,1.211s-0.159,0.874-0.418,1.211
		c-0.365,0.478-0.935,0.789-1.582,0.789H5.582c-0.647,0-1.217-0.313-1.582-0.789c-0.259-0.337-0.418-0.753-0.418-1.211
		S3.741,29.708,4,29.371z"/>
</g>
<g>
</g>
<g>
</g>
<g>
</g>
<g>
</g>
<g>
</g>
<g>
</g>
<g>
</g>
<g>
</g>
<g>
</g>
<g>
</g>
<g>
</g>
<g>
</g>
<g>
</g>
<g>
</g>
<g>
</g>
</svg>
