<?xml version="1.0" encoding="utf-8"?>
<!-- Generator: Adobe Illustrator 16.0.0, SVG Export Plug-In . SVG Version: 6.00 Build 0)  -->
<!DOCTYPE svg PUBLIC "-//W3C//DTD SVG 1.1//EN" "http://www.w3.org/Graphics/SVG/1.1/DTD/svg11.dtd">
<svg version="1.1" id="Capa_1" xmlns="http://www.w3.org/2000/svg" xmlns:xlink="http://www.w3.org/1999/xlink" x="0px" y="0px"
	 width="595.279px" height="841.891px" viewBox="0 0 595.279 841.891" enable-background="new 0 0 595.279 841.891"
	 xml:space="preserve">
<g>
	<g>
		<path fill="#010002" d="M297.64,123.305C133.269,123.305,0,256.573,0,420.945c0,164.371,133.27,297.64,297.641,297.64
			c164.372,0,297.64-133.269,297.64-297.64C595.28,256.537,462.012,123.305,297.64,123.305z"/>
	</g>
</g>
<g enable-background="new    ">
	<path fill="#FFFFFF" d="M502.329,545.597c0,27.892-5.152,52.749-15.462,74.576c-10.306,21.828-24.961,40.228-43.956,55.176
		c-19.005,14.961-41.637,26.28-67.907,33.954c-26.281,7.673-55.176,11.52-86.703,11.52c-19.403,0-37.896-1.516-55.479-4.547
		c-17.583-3.031-33.347-6.878-47.292-11.52c-13.946-4.644-25.769-9.494-35.47-14.551c-9.701-5.05-16.778-9.598-21.221-13.645
		c-4.453-4.034-7.684-9.699-9.702-16.975c-2.027-7.277-3.031-17.177-3.031-29.711c0-7.674,0.397-14.145,1.213-19.401
		c0.805-5.25,1.818-9.493,3.031-12.732c1.212-3.23,2.927-5.551,5.154-6.974c2.217-1.411,4.746-2.123,7.578-2.123
		c4.444,0,11.008,2.729,19.707,8.185c8.687,5.459,19.401,11.427,32.135,17.889c12.733,6.469,27.787,12.43,45.17,17.886
		c17.375,5.456,37.384,8.186,60.026,8.186c16.977,0,32.333-1.819,46.079-5.456c13.738-3.639,25.666-8.992,35.772-16.069
		c10.102-7.067,17.887-16.067,23.345-26.98c5.456-10.914,8.186-23.846,8.186-38.805c0-15.356-3.942-28.287-11.823-38.805
		c-7.884-10.506-18.295-19.799-31.226-27.89c-12.942-8.082-27.493-15.254-43.654-21.523c-16.173-6.264-32.847-12.827-50.023-19.707
		c-17.185-6.868-33.953-14.646-50.323-23.343c-16.371-8.687-31.027-19.298-43.958-31.831
		c-12.942-12.525-23.344-27.484-31.225-44.867c-7.882-17.375-11.823-38.2-11.823-62.452c0-21.419,4.14-41.932,12.43-61.542
		c8.28-19.601,20.708-36.777,37.289-51.537c16.568-14.751,37.289-26.573,62.146-35.468c24.859-8.887,53.859-13.34,87.006-13.34
		c14.553,0,29.104,1.212,43.654,3.638c14.553,2.425,27.685,5.457,39.411,9.095c11.72,3.638,21.724,7.578,30.015,11.823
		c8.278,4.245,14.55,7.988,18.795,11.217c4.245,3.24,7.067,6.064,8.486,8.489c1.413,2.425,2.426,5.154,3.033,8.185
		c0.606,3.032,1.213,6.774,1.819,11.218c0.607,4.451,0.908,9.909,0.908,16.37c0,6.878-0.301,12.837-0.908,17.887
		c-0.606,5.059-1.62,9.199-3.031,12.428c-1.423,3.241-3.135,5.562-5.154,6.973c-2.025,1.42-4.245,2.122-6.669,2.122
		c-3.639,0-8.896-2.215-15.765-6.667c-6.878-4.443-15.764-9.191-26.68-14.249c-10.913-5.051-23.75-9.796-38.5-14.249
		c-14.76-4.444-31.632-6.67-50.626-6.67c-16.979,0-31.937,1.922-44.869,5.759c-12.94,3.847-23.551,9.304-31.831,16.372
		c-8.29,7.076-14.553,15.461-18.797,25.162c-4.244,9.702-6.365,20.217-6.365,31.529c0,15.762,4.036,29.008,12.126,39.714
		c8.081,10.713,18.587,20.111,31.528,28.193c12.932,8.089,27.682,15.365,44.26,21.828c16.568,6.471,33.443,13.139,50.629,20.007
		c17.176,6.877,34.151,14.552,50.93,23.04c16.769,8.489,31.624,18.797,44.564,30.922c12.933,12.127,23.345,26.68,31.227,43.654
		C498.389,501.941,502.329,522.158,502.329,545.597z"/>
</g>
</svg>
