<?xml version="1.0" encoding="utf-8"?>
<!-- Generator: Adobe Illustrator 16.0.0, SVG Export Plug-In . SVG Version: 6.00 Build 0)  -->
<!DOCTYPE svg PUBLIC "-//W3C//DTD SVG 1.1//EN" "http://www.w3.org/Graphics/SVG/1.1/DTD/svg11.dtd">
<svg version="1.1" id="Capa_1" xmlns="http://www.w3.org/2000/svg" xmlns:xlink="http://www.w3.org/1999/xlink" x="0px" y="0px"
	 width="595.279px" height="841.891px" viewBox="0 0 595.279 841.891" enable-background="new 0 0 595.279 841.891"
	 xml:space="preserve">
<g>
	<g>
		<path fill="#010002" d="M297.64,123.305C133.269,123.305,0,256.573,0,420.945c0,164.371,133.27,297.64,297.641,297.64
			c164.372,0,297.64-133.269,297.64-297.64C595.28,256.537,462.012,123.305,297.64,123.305z"/>
	</g>
</g>
<g enable-background="new    ">
	<path fill="#FFFFFF" d="M552.075,583.468c0,35.456-6.551,67.054-19.655,94.801c-13.1,27.749-31.731,51.138-55.878,70.14
		c-24.158,19.02-52.93,33.409-86.323,43.162c-33.41,9.755-70.14,14.646-110.217,14.646c-24.666,0-48.173-1.927-70.525-5.781
		c-22.352-3.854-42.392-8.743-60.119-14.644c-17.728-5.901-32.758-12.068-45.09-18.496c-12.332-6.421-21.329-12.201-26.975-17.346
		c-5.661-5.129-9.768-12.329-12.333-21.58c-2.577-9.25-3.853-21.834-3.853-37.767c0-9.756,0.505-17.98,1.542-24.664
		c1.024-6.673,2.312-12.067,3.854-16.185c1.541-4.106,3.72-7.058,6.551-8.865c2.818-1.794,6.033-2.699,9.633-2.699
		c5.648,0,13.994,3.471,25.051,10.404c11.043,6.939,24.663,14.525,40.85,22.741c16.187,8.222,35.324,15.799,57.42,22.735
		c22.088,6.937,47.523,10.406,76.305,10.406c21.581,0,41.103-2.313,58.577-6.937c17.464-4.624,32.626-11.432,45.475-20.427
		c12.839-8.984,22.736-20.425,29.675-34.298c6.935-13.875,10.405-30.312,10.405-49.329c0-19.521-5.011-35.959-15.03-49.329
		c-10.021-13.354-23.256-25.168-39.692-35.454c-16.452-10.273-34.95-19.39-55.495-27.359c-20.559-7.962-41.754-16.306-63.589-25.051
		c-21.844-8.732-43.161-18.618-63.97-29.676c-20.811-11.041-39.442-24.53-55.881-40.463c-16.452-15.922-29.674-34.938-39.693-57.035
		c-10.021-22.088-15.03-48.56-15.03-79.389c0-27.228,5.263-53.304,15.801-78.232c10.526-24.917,26.324-46.752,47.401-65.514
		c21.062-18.751,47.402-33.779,79.001-45.088c31.601-11.298,68.466-16.958,110.604-16.958c18.499,0,36.996,1.542,55.494,4.625
		c18.498,3.083,35.191,6.936,50.099,11.562c14.897,4.624,27.613,9.634,38.154,15.029c10.524,5.396,18.495,10.154,23.893,14.259
		c5.396,4.119,8.984,7.709,10.788,10.792c1.797,3.082,3.083,6.55,3.856,10.404c0.769,3.853,1.54,8.61,2.312,14.261
		c0.774,5.658,1.154,12.596,1.154,20.808c0,8.744-0.38,16.319-1.154,22.738c-0.771,6.43-2.059,11.694-3.854,15.798
		c-1.807,4.12-3.985,7.07-6.552,8.864c-2.574,1.806-5.396,2.697-8.477,2.697c-4.627,0-11.311-2.816-20.042-8.475
		c-8.742-5.649-20.038-11.684-33.915-18.114c-13.872-6.421-30.191-12.452-48.94-18.112c-18.764-5.649-40.211-8.479-64.357-8.479
		c-21.584,0-40.597,2.444-57.036,7.32c-16.451,4.89-29.939,11.828-40.464,20.813c-10.539,8.995-18.5,19.654-23.895,31.985
		c-5.394,12.333-8.092,25.699-8.092,40.08c0,20.037,5.13,36.875,15.415,50.485c10.273,13.619,23.628,25.565,40.079,35.839
		c16.439,10.283,35.19,19.532,56.264,27.747c21.062,8.225,42.513,16.702,64.361,25.434c21.833,8.743,43.413,18.499,64.74,29.289
		c21.317,10.792,40.201,23.895,56.652,39.307c16.438,15.418,29.675,33.917,39.695,55.495
		C547.067,527.973,552.075,553.671,552.075,583.468z"/>
</g>
<path d="M14.631,201.326C52.739,122.838,120.642,67.773,198.196,37.856c11.079-4.275,22.355-8.036,33.776-11.243
	c34.99-9.176,68.444-15.879,104.879-15.033c11.704-0.14,23.384,0.306,34.966,1.292c81.063,6.891,157.387,40.166,208.832,101.553
	c0,0-122.034-108.398-290.485-78.688C68.047,74.91,30.156,198.923,14.631,201.326"/>
<path d="M22.297,717.496c58.2,68.193,138.653,104.746,221.498,113.455c11.834,1.246,23.719,1.922,35.59,2.004
	c36.192-0.4,70.228-2.859,105.062-13.698c11.303-3.069,22.421-6.72,33.298-10.882c76.129-29.135,140.461-83.406,173.14-159.022
	c0,0-87.725,142.078-257.995,158.503C108.373,829.515,37.898,715.646,22.297,717.496"/>
</svg>
