<?xml version="1.0" encoding="iso-8859-1"?>
<!-- Generator: Adobe Illustrator 16.0.0, SVG Export Plug-In . SVG Version: 6.00 Build 0)  -->
<!DOCTYPE svg PUBLIC "-//W3C//DTD SVG 1.1//EN" "http://www.w3.org/Graphics/SVG/1.1/DTD/svg11.dtd">
<svg version="1.1" id="Capa_1" xmlns="http://www.w3.org/2000/svg" xmlns:xlink="http://www.w3.org/1999/xlink" x="0px" y="0px"
	 width="31.331px" height="31.331px" viewBox="0 0 31.331 31.331" style="enable-background:new 0 0 31.331 31.331;"
	 xml:space="preserve">
<g>
	<g>
		<circle cx="4.968" cy="13.262" r="4.02"/>
		<path d="M10.831,9.036l-1.247,2.178c0,0,3.997-0.617,6.76-1.435c2.764-0.819,5.465-2.343,5.465-4.59
			c0.002-2.598-3.121-4.704-6.974-4.704c-3.852,0-6.974,2.106-6.974,4.704C7.861,6.78,9.037,8.185,10.831,9.036z"/>
		<circle cx="12.762" cy="18.844" r="4.393"/>
		<polygon points="14.458,23.898 12.838,25.84 11.164,23.898 7.532,24.522 7.333,30.846 18.199,30.846 18,24.522 		"/>
		<path d="M9.902,22.825c-1.323-0.833-2.208-2.304-2.208-3.98c0-0.328,0.035-0.648,0.099-0.959H6.52l-1.482,1.777l-1.532-1.777
			l-3.322,0.623L0,24.245h6.848l0.044-0.279l3.057-0.623L9.902,22.825z"/>
		<path d="M23.709,9.697c-4.209,0-7.621,2.303-7.621,5.141c0,1.739,1.285,3.273,3.245,4.206l-1.362,2.379
			c0,0,4.367-0.672,7.387-1.568c3.021-0.895,5.974-2.559,5.974-5.016C31.331,12,27.918,9.697,23.709,9.697z"/>
	</g>
</g>
<g>
</g>
<g>
</g>
<g>
</g>
<g>
</g>
<g>
</g>
<g>
</g>
<g>
</g>
<g>
</g>
<g>
</g>
<g>
</g>
<g>
</g>
<g>
</g>
<g>
</g>
<g>
</g>
<g>
</g>
</svg>
