<?xml version="1.0" encoding="iso-8859-1"?>
<!-- Generator: Adobe Illustrator 16.0.0, SVG Export Plug-In . SVG Version: 6.00 Build 0)  -->
<!DOCTYPE svg PUBLIC "-//W3C//DTD SVG 1.1//EN" "http://www.w3.org/Graphics/SVG/1.1/DTD/svg11.dtd">
<svg version="1.1" id="Capa_1" xmlns="http://www.w3.org/2000/svg" xmlns:xlink="http://www.w3.org/1999/xlink" x="0px" y="0px"
	 width="946.323px" height="946.323px" viewBox="0 0 946.323 946.323" style="enable-background:new 0 0 946.323 946.323;"
	 xml:space="preserve">
<g>
	<g>
		<path d="M801.663,906.823v-79.3c-16.4,9.3-35,14.199-54.4,14.199c-17.399,0-34.8-4.199-50.199-12
			c-6.5-3.3-12.601-7.199-18.301-11.699c-5.699,4.5-11.899,8.399-18.3,11.699c-15.399,7.9-32.8,12-50.2,12
			c-17.399,0-34.8-4.199-50.199-12c-6.5-3.3-12.601-7.199-18.301-11.699c-5.699,4.5-11.899,8.399-18.3,11.699
			c-15.399,7.9-32.8,12-50.201,12c-17.399,0-34.8-4.199-50.199-12c-6.5-3.3-12.601-7.199-18.301-11.699
			c-5.699,4.5-11.899,8.399-18.3,11.699c-15.399,7.9-32.8,12-50.2,12c-17.399,0-34.8-4.199-50.199-12
			c-6.5-3.3-12.601-7.199-18.3-11.699c-5.7,4.5-11.9,8.399-18.3,11.699c-15.4,7.9-32.8,12-50.2,12c-19.4,0-38-4.899-54.4-14.199
			v79.3c0,21.8,17.7,39.5,39.5,39.5h578C783.963,946.323,801.663,928.623,801.663,906.823z"/>
		<path d="M143.663,796.423c0.2,0.101,0.3,0.3,0.5,0.4c0.2,0.1,0.3,0.3,0.5,0.399c14.8,12.101,33.7,19.4,54.4,19.4
			c28,0,52.8-13.4,68.5-34.1c15.7,20.699,40.5,34.1,68.5,34.1s52.8-13.4,68.5-34.1c15.699,20.699,40.5,34.1,68.5,34.1
			c28,0,52.8-13.4,68.5-34.1c15.699,20.699,40.5,34.1,68.5,34.1s52.8-13.4,68.5-34.1c15.699,20.699,40.5,34.1,68.5,34.1
			c20.6,0,39.6-7.3,54.399-19.4c0.2-0.1,0.3-0.3,0.5-0.399c0.2-0.101,0.3-0.3,0.5-0.4c18.601-15.8,30.5-39.3,30.5-65.6
			c0-43.101-31.8-78.8-73.2-84.9v-109.6c-14.399,7.399-30.6,11.6-47.8,11.6c-16.5,0-32.899-3.899-47.5-11.399
			c-4.2-2.2-8.3-4.601-12.2-7.301c-3.899,2.7-8,5.2-12.199,7.301c-14.601,7.399-31,11.399-47.5,11.399s-32.9-3.899-47.5-11.399
			c-4.2-2.2-8.301-4.601-12.2-7.301c-3.9,2.7-8,5.2-12.2,7.301c-14.6,7.399-31,11.399-47.5,11.399c-16.5,0-32.9-3.899-47.5-11.399
			c-4.2-2.2-8.3-4.601-12.2-7.301c-3.899,2.7-8,5.2-12.2,7.301c-14.6,7.399-31,11.399-47.5,11.399s-32.899-3.899-47.5-11.399
			c-4.199-2.2-8.3-4.601-12.199-7.301c-3.9,2.7-8,5.2-12.2,7.301c-14.6,7.399-31,11.399-47.5,11.399c-17.2,0-33.5-4.2-47.8-11.6
			v109.6c-41.4,6.101-73.2,41.8-73.2,84.9C113.163,757.123,125.062,780.723,143.663,796.423z"/>
		<path d="M234.163,368.123c-41.4,0-74.9,33.5-74.9,74.9c0,23.199,10.5,43.8,27,57.6c13,10.8,29.7,17.3,47.8,17.3
			c24.4,0,46.1-11.7,59.7-29.7c13.7,18.101,35.301,29.7,59.7,29.7c24.4,0,46.101-11.7,59.7-29.7c13.7,18.101,35.3,29.7,59.7,29.7
			c24.4,0,46.1-11.7,59.701-29.7c13.699,18.101,35.3,29.7,59.699,29.7c24.4,0,46.101-11.7,59.7-29.7
			c13.7,18.101,35.3,29.7,59.7,29.7c18.2,0,34.9-6.5,47.8-17.3c16.5-13.7,27-34.4,27-57.6c0-41.4-33.5-74.9-74.899-74.9
			C687.763,368.123,258.562,368.123,234.163,368.123z"/>
		<path d="M582.363,335.923c86.3-13.7,130.6-53.5,142.1-80c0.601-1.3,0.9-2,0.9-2c13-30-0.8-64.9-30.8-77.9
			c-19.4-8.4-40.9-5.6-57.101,5.6c-3-19.5-15.6-37.1-35-45.5c-30-13-64.899,0.8-77.899,30.8c0,0-0.301,0.7-0.801,2
			c-11.5,26.5-10.1,86,39,158.3C567.063,333.823,574.763,337.123,582.363,335.923z"/>
		<path d="M152.562,202.723c19,43.9,93.6,110.4,239.3,131.4c7.5,1.1,14.899-2.1,19.2-8.3c84.5-120.7,87.1-220.5,68.1-264.4
			c-0.9-2.1-1.4-3.3-1.4-3.3c-21-48.8-77.8-71.3-126.6-50.2c-31.6,13.7-52.1,42.2-57,73.9c-26.4-18.2-61.3-22.7-92.9-9.1
			c-48.8,21.1-71.3,77.8-50.2,126.7C151.062,199.523,151.663,200.623,152.562,202.723z"/>
	</g>
</g>
<g>
</g>
<g>
</g>
<g>
</g>
<g>
</g>
<g>
</g>
<g>
</g>
<g>
</g>
<g>
</g>
<g>
</g>
<g>
</g>
<g>
</g>
<g>
</g>
<g>
</g>
<g>
</g>
<g>
</g>
</svg>
